# xmcd CD database file
#
# Track frame offsets:
#	150
#	27922
#	48060
#	69807
#	92750
#	110075
#	124335
#	144672
#	160660
#	179467
#
# Disc length: 2744 seconds
#
# Revision: 0
# Processed by: cddbd v1.5PL3 Copyright (c) Steve Scherf et al.
# Submitted via: CDex 1.50Beta7
#
DISCID=820ab60a
DTITLE=Henk Delaat - But Beautiful
DYEAR=1900
DGENRE=Jazz
TTITLE0=But Beautiful
TTITLE1=A Sleepin' Bee
TTITLE2=O Pato
TTITLE3=But Not For Me
TTITLE4=The Girl Next Door
TTITLE5=Coisa Feita
TTITLE6=Born To Be Blue
TTITLE7=Almost Like Being In Love
TTITLE8=Madelena
TTITLE9=Beautiful Love
EXTD=
EXTT0=
EXTT1=
EXTT2=
EXTT3=
EXTT4=
EXTT5=
EXTT6=
EXTT7=
EXTT8=
EXTT9=
PLAYORDER=
